<svg width="322" height="346" viewBox="0 0 322 346" fill="none" xmlns="http://www.w3.org/2000/svg">
<path d="M57.6126 218.591L231.113 259.791L263.113 124.891L89.6126 83.6915L57.6126 218.591ZM34.3126 83.0915C39.0126 63.1915 45.9126 50.6915 55.0126 45.4915C64.3126 40.1915 80.1126 40.1915 102.313 45.3915L268.713 84.8915C290.813 90.0915 304.913 97.2915 311.013 106.191C316.813 115.091 317.313 129.391 312.613 149.091L285.713 262.492C281.113 282.092 274.013 294.491 264.513 299.991C255.013 305.291 239.413 305.291 217.613 300.191L51.2126 260.692C29.0126 255.392 14.9126 248.291 9.01261 239.391C3.21261 230.791 2.6126 216.492 7.4126 196.492L34.3126 83.0915Z" fill="#63677D"/>
<path d="M136.012 59.7906L119.212 90.7906L155.912 99.4906L205.912 91.5906L144.812 58.3906L136.012 59.7906ZM112.012 253.991L176.412 288.991L177.512 288.791L197.612 251.891L168.812 245.091L112.012 253.991ZM57.6124 218.591L63.6124 193.091L49.1124 219.791L76.1124 234.391L74.2124 222.491L57.6124 218.591ZM308.512 140.591C307.212 143.391 305.712 146.291 304.112 149.291L264.212 222.891L265.312 229.791L260.012 230.591L233.212 279.991L268.412 274.391C273.912 273.491 278.912 272.491 283.512 271.291C284.412 268.491 285.212 265.591 286.012 262.391L311.212 156.291L308.512 140.591ZM263.112 124.891L260.412 136.191L266.712 124.591L246.912 113.791L248.112 121.291L263.112 124.891ZM36.1124 76.5906C35.5124 78.6906 34.9124 80.7906 34.4124 83.0906L10.7124 183.191L13.0124 197.891C13.3124 197.391 13.5124 196.891 13.8124 196.291L57.4124 115.991L57.2124 114.991L58.0124 114.891L83.4124 68.0906L54.4124 72.6906C47.5124 73.7906 41.5124 75.0906 36.1124 76.5906Z" fill="#3D86B9"/>
<path d="M231.113 259.791L197.613 251.891L177.613 288.791L233.113 279.991L259.913 230.591L237.213 234.191L231.113 259.791ZM301.713 97.4914C294.113 92.4914 283.213 88.2914 268.813 84.8914L152.213 57.1914L144.913 58.3914L206.013 91.5914L242.413 85.7914L246.813 113.791L266.713 124.591L260.413 136.191L254.413 161.491L264.113 222.791L304.013 149.191C305.613 146.191 307.113 143.291 308.413 140.491L301.713 97.4914ZM89.6126 83.6914L119.213 90.6914L136.013 59.6914L83.4126 67.9914L58.0126 114.791L83.2126 110.791L89.6126 83.6914ZM79.9126 259.091L76.0126 234.491L49.0126 219.891L63.5126 193.191L67.1126 178.191L57.3126 116.091L13.7126 196.391C13.4126 196.891 13.2126 197.391 12.9126 197.991L21.1126 249.891C28.5126 254.091 38.5126 257.791 51.3126 260.791L172.813 289.591L176.413 288.991L112.013 253.991L79.9126 259.091Z" fill="#86BBBA"/>
<path d="M79.9126 259.091L112.013 253.991L76.0126 234.491L79.9126 259.091ZM96.4126 44.1914L83.4126 68.1914L136.013 59.8914L138.613 55.0914L144.913 58.4914L152.213 57.2914L102.413 45.4914C100.313 44.8914 98.3126 44.5914 96.4126 44.1914ZM177.213 289.391L176.413 288.991L172.813 289.591L217.713 300.191C219.113 300.491 220.413 300.791 221.713 301.091L233.113 280.091L177.613 288.891L177.213 289.391ZM4.3126 216.791C3.8126 226.491 5.41261 234.091 9.01261 239.491C11.5126 243.291 15.6126 246.691 21.1126 249.891L12.9126 197.991C9.31261 204.691 6.4126 210.991 4.3126 216.791ZM242.413 85.7914L205.913 91.5914L246.913 113.791L242.413 85.7914ZM57.9126 114.991L57.3126 116.091L67.1126 178.191L83.0126 110.991L57.9126 114.991ZM311.113 106.291C309.013 103.191 305.813 100.191 301.713 97.5914L308.513 140.691C311.813 133.891 314.213 127.591 315.713 121.991C315.213 115.591 313.713 110.291 311.113 106.291ZM237.213 234.191L259.913 230.591L264.113 222.791L254.413 161.491L237.213 234.191Z" fill="#85AAA6"/>
<path d="M298.113 78.2908C294.513 63.5908 289.013 53.5908 281.713 48.4908C275.813 44.5908 267.113 42.5908 255.713 42.5908H255.513C250.013 42.5908 243.813 43.0908 237.013 43.9908L284.613 69.8908C289.713 72.5908 294.213 75.3908 298.113 78.2908ZM25.1128 270.891C28.7128 284.691 34.0128 293.991 41.0128 298.691C46.8128 302.591 55.5128 304.591 66.9128 304.691H67.1128C72.3128 304.691 78.0128 304.291 84.3128 303.491L33.3128 275.791C30.3128 274.091 27.7128 272.491 25.1128 270.891ZM319.513 210.591L310.913 156.491L285.713 262.591C285.013 265.791 284.113 268.691 283.213 271.491C298.113 267.691 308.313 262.491 313.713 255.591C320.913 246.491 322.813 231.491 319.513 210.591ZM36.1128 76.5908C22.6128 80.2908 13.3128 85.2908 8.4128 91.6908C1.6128 100.391 -0.0872086 115.291 3.31279 136.491L10.7128 183.191L34.4128 83.0908C34.9128 80.7908 35.5128 78.6908 36.1128 76.5908ZM110.613 106.591L155.913 99.3908L119.213 90.6908L110.613 106.591ZM252.713 150.491L260.413 136.191L263.113 124.891L248.113 121.291L252.713 150.491ZM68.2128 184.691L63.6128 193.091L57.6128 218.591L74.2128 222.491L68.2128 184.691ZM197.613 251.891L204.413 239.491L168.913 245.091L197.613 251.891Z" fill="#66B2E4"/>
<path d="M254.413 161.491L260.413 136.191L252.713 150.491L254.413 161.491ZM300.413 89.5906C299.813 85.4906 299.013 81.7906 298.113 78.2906C294.213 75.3906 289.713 72.5906 284.613 69.7906L237.013 43.8906C235.413 44.0906 233.713 44.2906 232.013 44.5906L152.213 57.1906L268.813 84.8906C283.213 88.2906 294.113 92.4906 301.713 97.4906L300.413 89.5906ZM21.1128 249.791L22.3128 257.591C23.1128 262.491 24.0128 266.891 25.1128 270.891C27.6128 272.491 30.3128 274.091 33.3128 275.691L84.3128 303.391C86.3128 303.091 88.5128 302.791 90.6128 302.491L172.813 289.491L51.3128 260.691C38.5128 257.691 28.5128 253.991 21.1128 249.791ZM119.213 90.7906L89.6128 83.7906L83.1128 110.991L110.613 106.691L119.213 90.7906ZM67.2128 178.191L63.6128 193.191L68.2128 184.791L67.2128 178.191ZM197.613 251.891L231.113 259.791L237.213 234.191L204.413 239.391L197.613 251.891Z" fill="#96CBC8"/>
<path d="M172.813 289.591L90.6127 302.591C88.4127 302.891 86.3127 303.191 84.3127 303.491L141.013 334.291C155.213 341.991 167.013 345.791 176.413 345.791H176.513C179.613 345.791 182.513 345.291 185.013 344.391C195.713 340.791 206.813 328.491 218.213 307.391L221.613 301.091C220.313 300.791 219.013 300.591 217.613 300.191L172.813 289.591ZM21.1127 249.791C15.6127 246.691 11.6127 243.191 9.01273 239.391C5.41273 234.091 3.81272 226.491 4.31272 216.891C0.21272 228.191 -0.98728 237.391 0.81272 244.391C3.11272 253.391 11.3127 262.291 25.1127 270.991C24.0127 266.891 23.1127 262.491 22.3127 257.691L21.1127 249.791ZM152.113 57.2908L231.913 44.6908C233.613 44.3908 235.213 44.1908 236.913 43.9908L176.813 11.3908C158.113 1.19079 143.413 -2.10922 132.813 1.29078C122.013 4.99078 110.913 17.3908 99.5127 38.3908L96.3127 44.2908C98.3127 44.6908 100.213 45.0908 102.313 45.5908L152.113 57.2908ZM316.813 101.691C314.713 93.5908 308.413 85.7908 298.213 78.2908C299.113 81.7908 299.813 85.4908 300.513 89.5908L301.813 97.5908C305.913 100.291 309.113 103.191 311.213 106.291C313.813 110.291 315.313 115.491 315.813 121.691C317.713 113.791 318.113 107.091 316.813 101.691ZM83.1127 110.991L67.2127 178.191L68.2127 184.691L110.613 106.591L83.1127 110.991ZM204.413 239.391L237.213 234.191L254.413 161.491L252.713 150.491L204.413 239.391Z" fill="#BEDFCD"/>
</svg>
