<svg width="168" height="16" viewBox="0 0 168 16" fill="none" xmlns="http://www.w3.org/2000/svg">
<path d="M155.566 7.41586L166.619 0.0117188H160.977L151.641 6.47269V0.0117188H147.705V15.9947H151.641V8.7826L161.7 15.9947H167.867L155.566 7.41586Z" fill="#202D56"/>
<path d="M129.09 9.06456H136.805V6.30849H129.09V2.8295H142.328V0H125.159V15.983H142.526V12.9954H129.09V9.06456Z" fill="#202D56"/>
<path d="M108.808 0.0166016L100.021 15.9996H103.737L109.893 4.4444L116.365 15.9996H120.601L111.378 0.0166016H108.808Z" fill="#202D56"/>
<path d="M91.6002 0H79.2261C77.5769 0 76.4643 0.265442 75.8996 0.796326C75.3348 1.32721 75.0637 2.30426 75.0637 3.78396V12.199C75.0637 13.6787 75.3461 14.6784 75.8996 15.1867C76.4531 15.695 77.5939 15.9774 79.2261 15.9774H91.6002C93.2154 15.9774 94.3167 15.7176 94.8985 15.1867C95.4802 14.6558 95.7682 13.6505 95.7682 12.199V3.79526C95.7682 2.32685 95.4858 1.33286 94.938 0.807622C94.3902 0.282385 93.2437 0 91.6002 0ZM91.8656 12.9163H78.9663V2.91421H91.8656V12.9163Z" fill="#202D56"/>
<path d="M65.6887 6.20725H54.0826V0.0117188H50.3665V15.9947H54.0826V9.11582H65.6887V15.9947H69.4331V0.0117188H65.6887V6.20725Z" fill="#202D56"/>
<path d="M32.6889 0L23.1951 15.9943H27.1089L29.1139 12.4814H39.692L41.6969 15.9943H46.0796L36.4276 0H32.6889ZM30.763 9.6011L34.3493 2.92551L38.105 9.6011H30.763Z" fill="#202D56"/>
<path d="M15.3222 6.21213H3.71619V0.0166016H0V15.9996H3.71619V9.1207H15.3222V15.9996H19.0666V0.0166016H15.3222V6.21213Z" fill="#202D56"/>
</svg>
