<svg width="23" height="15" viewBox="0 0 23 15" fill="none" xmlns="http://www.w3.org/2000/svg">
<path d="M12.535 14.375C4.67188 14.375 0.186875 8.97 0 0H3.93875C4.06813 6.58375 6.97187 9.34375 9.27187 9.9475V0H12.9806V5.67813C15.2519 5.43375 17.6381 2.875 18.4431 0H22.1519C21.8539 1.48009 21.2531 2.8826 20.3873 4.11948C19.5215 5.35635 18.4093 6.40088 17.1206 7.1875C18.552 7.90329 19.8158 8.9137 20.8291 10.1524C21.8423 11.3911 22.5822 12.8302 23 14.375H18.9319C18.556 13.0283 17.7906 11.8228 16.7318 10.9097C15.6729 9.9967 14.3679 9.41688 12.9806 9.24313V14.375H12.535Z" fill="#202D56"/>
</svg>
